<svg width="49" height="49" viewBox="0 0 49 49" fill="none" xmlns="http://www.w3.org/2000/svg">
<path d="M33.5 30L40.5 30L41.5 30L41.5 9L34 9L12 9L6 23.5L6.5 30L20.5 30.5L20.5 41.5L23.5 41.5L33.5 30Z" fill="#FF8787"/>
<path d="M8.16667 32.6667L19.6245 32.6667L17.3317 39.541C16.9193 40.7823 17.1275 42.1584 17.8932 43.2201C18.6588 44.2817 19.9001 44.9167 21.2088 44.9167L24.5 44.9167C25.1064 44.9167 25.6801 44.6472 26.07 44.1817L35.6659 32.6667L40.8333 32.6667C43.0853 32.6667 44.9167 30.8353 44.9167 28.5834L44.9167 10.2084C44.9167 7.9564 43.0853 6.12502 40.8333 6.12502L13.6649 6.12503C12.8342 6.12778 12.0238 6.3826 11.341 6.85579C10.6582 7.32897 10.1351 7.99824 9.84084 8.77511L4.21196 23.7834C4.1265 24.0126 4.08293 24.2554 4.08334 24.5L4.08334 28.5834C4.08334 30.8353 5.91472 32.6667 8.16667 32.6667ZM40.8333 28.5834L36.75 28.5834L36.75 10.2084L40.8333 10.2084L40.8333 28.5834ZM8.16667 24.8696L13.6649 10.2084L32.6667 10.2084L32.6667 29.8859L23.5445 40.8334L21.2048 40.8334L24.3938 31.2722C24.4974 30.9653 24.5262 30.6382 24.4781 30.3179C24.4299 29.9976 24.3061 29.6934 24.1169 29.4306C23.9276 29.1677 23.6785 28.9537 23.3901 28.8064C23.1016 28.659 22.7822 28.5826 22.4583 28.5834L8.16667 28.5834L8.16667 24.8696Z" fill="#FF3232"/>
</svg>
