<svg width="49" height="49" viewBox="0 0 49 49" fill="none" xmlns="http://www.w3.org/2000/svg">
<path d="M15 19.5H8H7V40.5H14.5H36.5L42.5 26L42 19.5L28 19V8H25L15 19.5Z" fill="#51ff8b"/>
<path d="M8.16667 42.875L35.3351 42.875C36.1659 42.8722 36.9762 42.6174 37.659 42.1442C38.3418 41.6711 38.8649 41.0018 39.1592 40.2249L44.788 25.2166C44.8735 24.9874 44.9171 24.7447 44.9167 24.5L44.9167 20.4167C44.9167 18.1647 43.0853 16.3333 40.8333 16.3333L29.3755 16.3333L31.6663 9.45904C31.8705 8.84524 31.9263 8.19176 31.829 7.55222C31.7318 6.91268 31.4843 6.30531 31.1068 5.77996C30.3392 4.71829 29.1019 4.08333 27.7912 4.08333L24.5 4.08333C23.8936 4.08333 23.3199 4.35284 22.93 4.81834L13.3341 16.3333L8.16667 16.3333C5.91471 16.3333 4.08334 18.1647 4.08334 20.4167L4.08334 38.7917C4.08334 41.0436 5.91471 42.875 8.16667 42.875ZM25.4575 8.16667L27.7953 8.16667L24.6062 17.7298C24.504 18.0366 24.4761 18.3632 24.5249 18.6829C24.5737 19.0025 24.6976 19.306 24.8866 19.5684C25.0756 19.8307 25.3242 20.0444 25.6119 20.1919C25.8997 20.3394 26.2183 20.4164 26.5417 20.4167L40.8333 20.4167L40.8333 24.1305L35.3351 38.7917L16.3333 38.7917L16.3333 19.1141L25.4575 8.16667ZM12.25 20.4167L12.25 38.7917L8.16667 38.7917L8.16463 20.4167L12.25 20.4167Z" fill="#0CA524"/>
</svg>
